<?xml version="1.0" encoding="UTF-8"?>
<svg xmlns="http://www.w3.org/2000/svg" width="900" height="360" viewBox="0 0 900 360">
<style>
  text { font-family: ui-sans-serif, system-ui, -apple-system, Segoe UI, Roboto, Helvetica, Arial; fill: #111827; }
  .muted { fill: #6b7280; }
  .label { font-size: 14px; }
  .title { font-size: 16px; font-weight: 700; }
  .small { font-size: 12px; }
</style>
<text x="240" y="24" class="title">Per-seed ESS/sec scatter (min bulk)</text>
<text x="240" y="38" class="small muted">Each dot = one seed run; x-axis is ESS/sec</text>
<line x1="240" y1="320" x2="860" y2="320" stroke="#e5e7eb" />
<line x1="240.0" y1="40" x2="240.0" y2="320" stroke="#f3f4f6" />
<text x="240.0" y="336" class="small muted" text-anchor="middle">0</text>
<line x1="395.0" y1="40" x2="395.0" y2="320" stroke="#f3f4f6" />
<text x="395.0" y="336" class="small muted" text-anchor="middle">7,920</text>
<line x1="550.0" y1="40" x2="550.0" y2="320" stroke="#f3f4f6" />
<text x="550.0" y="336" class="small muted" text-anchor="middle">15,840</text>
<line x1="705.0" y1="40" x2="705.0" y2="320" stroke="#f3f4f6" />
<text x="705.0" y="336" class="small muted" text-anchor="middle">23,759</text>
<line x1="860.0" y1="40" x2="860.0" y2="320" stroke="#f3f4f6" />
<text x="860.0" y="336" class="small muted" text-anchor="middle">31,679</text>
<text x="228" y="91.7" class="label" text-anchor="end">GLM logistic (6p)</text>
<circle cx="532.6" cy="94.7" r="4.2" fill="#9ca3af" />
<text x="540.6" y="98.7" class="small muted">seed_0</text>
<circle cx="529.5" cy="94.7" r="4.2" fill="#9ca3af" />
<text x="537.5" y="98.7" class="small muted">seed_123</text>
<circle cx="555.1" cy="94.7" r="4.2" fill="#9ca3af" />
<text x="563.1" y="98.7" class="small muted">seed_42</text>
<circle cx="530.2" cy="78.7" r="4.2" fill="#111827" />
<text x="538.2" y="82.7" class="small muted">seed_0</text>
<circle cx="519.1" cy="78.7" r="4.2" fill="#111827" />
<text x="527.1" y="82.7" class="small muted">seed_123</text>
<circle cx="530.2" cy="78.7" r="4.2" fill="#111827" />
<text x="538.2" y="82.7" class="small muted">seed_42</text>
<text x="228" y="185.0" class="label" text-anchor="end">Hierarchical logistic RI (non-centered, 22p)</text>
<circle cx="248.5" cy="188.0" r="4.2" fill="#9ca3af" />
<text x="256.5" y="192.0" class="small muted">seed_0</text>
<circle cx="251.8" cy="188.0" r="4.2" fill="#9ca3af" />
<text x="259.8" y="192.0" class="small muted">seed_123</text>
<circle cx="249.2" cy="188.0" r="4.2" fill="#9ca3af" />
<text x="257.2" y="192.0" class="small muted">seed_42</text>
<circle cx="273.7" cy="172.0" r="4.2" fill="#111827" />
<text x="281.7" y="176.0" class="small muted">seed_0</text>
<circle cx="272.2" cy="172.0" r="4.2" fill="#111827" />
<text x="280.2" y="176.0" class="small muted">seed_123</text>
<circle cx="272.8" cy="172.0" r="4.2" fill="#111827" />
<text x="280.8" y="176.0" class="small muted">seed_42</text>
<text x="228" y="278.3" class="label" text-anchor="end">Eight Schools (non-centered, 10p)</text>
<circle cx="590.8" cy="281.3" r="4.2" fill="#9ca3af" />
<text x="598.8" y="285.3" class="small muted">seed_0</text>
<circle cx="517.6" cy="281.3" r="4.2" fill="#9ca3af" />
<text x="525.6" y="285.3" class="small muted">seed_123</text>
<circle cx="596.9" cy="281.3" r="4.2" fill="#9ca3af" />
<text x="604.9" y="285.3" class="small muted">seed_42</text>
<circle cx="830.5" cy="265.3" r="4.2" fill="#111827" />
<text x="838.5" y="269.3" class="small muted">seed_0</text>
<circle cx="768.4" cy="265.3" r="4.2" fill="#111827" />
<text x="776.4" y="269.3" class="small muted">seed_123</text>
<circle cx="795.1" cy="265.3" r="4.2" fill="#111827" />
<text x="803.1" y="269.3" class="small muted">seed_42</text>
<circle cx="246" cy="346" r="5" fill="#111827" />
<text x="258" y="350" class="small muted">NextStat</text>
<circle cx="336" cy="346" r="5" fill="#9ca3af" />
<text x="348" y="350" class="small muted">CmdStan</text>
</svg>
