<svg xmlns="http://www.w3.org/2000/svg" width="960" height="560" viewBox="0 0 960 560">
<style>text{font-family:ui-sans-serif,system-ui,-apple-system,Segoe UI,Roboto,Helvetica,Arial,sans-serif;}.title{font-size:18px;font-weight:600;fill:#111827;}.label{font-size:13px;fill:#111827;}.tick{font-size:12px;fill:#374151;}.grid{stroke:#e5e7eb;stroke-width:1;}.axis{stroke:#111827;stroke-width:1.2;}</style>
<rect x="0" y="0" width="960" height="560" fill="#ffffff" />
<text x="92" y="34" class="title">coupled_histosys: q(mu) profile scan</text>
<line x1="92" y1="482.000" x2="932" y2="482.000" class="grid" />
<text x="80" y="486.000" text-anchor="end" class="tick">0</text>
<line x1="92" y1="388.946" x2="932" y2="388.946" class="grid" />
<text x="80" y="392.946" text-anchor="end" class="tick">10</text>
<line x1="92" y1="295.891" x2="932" y2="295.891" class="grid" />
<text x="80" y="299.891" text-anchor="end" class="tick">20</text>
<line x1="92" y1="202.837" x2="932" y2="202.837" class="grid" />
<text x="80" y="206.837" text-anchor="end" class="tick">30</text>
<line x1="92" y1="109.783" x2="932" y2="109.783" class="grid" />
<text x="80" y="113.783" text-anchor="end" class="tick">40</text>
<line x1="92" y1="16.728" x2="932" y2="16.728" class="grid" />
<text x="80" y="20.728" text-anchor="end" class="tick">50</text>
<line x1="92.000" y1="72" x2="92.000" y2="482" class="grid" />
<text x="92.000" y="504" text-anchor="middle" class="tick">0</text>
<line x1="232.000" y1="72" x2="232.000" y2="482" class="grid" />
<text x="232.000" y="504" text-anchor="middle" class="tick">0.5</text>
<line x1="372.000" y1="72" x2="372.000" y2="482" class="grid" />
<text x="372.000" y="504" text-anchor="middle" class="tick">1</text>
<line x1="512.000" y1="72" x2="512.000" y2="482" class="grid" />
<text x="512.000" y="504" text-anchor="middle" class="tick">1.5</text>
<line x1="652.000" y1="72" x2="652.000" y2="482" class="grid" />
<text x="652.000" y="504" text-anchor="middle" class="tick">2</text>
<line x1="792.000" y1="72" x2="792.000" y2="482" class="grid" />
<text x="792.000" y="504" text-anchor="middle" class="tick">2.5</text>
<line x1="932.000" y1="72" x2="932.000" y2="482" class="grid" />
<text x="932.000" y="504" text-anchor="middle" class="tick">3</text>
<line x1="92" y1="72" x2="92" y2="482" class="axis" />
<line x1="92" y1="482" x2="932" y2="482" class="axis" />
<text x="512.000" y="542" text-anchor="middle" class="label">mu</text>
<text x="22" y="277.000" text-anchor="middle" class="label" transform="rotate(-90 22 277.000)">q(mu)</text>
<polyline fill="none" stroke="#d62728" stroke-width="2.5" points="92.000,482.000 120.000,482.000 148.000,482.000 176.000,482.000 204.000,482.000 232.000,482.000 260.000,482.000 288.000,482.000 316.000,482.000 344.000,479.867 372.000,472.782 400.000,464.479 428.000,454.984 456.000,444.316 484.000,432.487 512.000,419.507 540.000,405.382 568.000,390.117 596.000,373.716 624.000,356.182 652.000,337.523 680.000,317.750 708.000,296.880 736.000,274.939 764.000,251.968 792.000,228.038 820.000,203.201 848.000,177.478 876.000,150.892 904.000,123.462 932.000,95.208" />
<polyline fill="none" stroke="#1f77b4" stroke-width="2.5" points="92.000,482.000 120.000,482.000 148.000,482.000 176.000,482.000 204.000,482.000 232.000,482.000 260.000,482.000 288.000,481.884 316.000,481.200 344.000,479.864 372.000,477.856 400.000,475.165 428.000,471.792 456.000,467.741 484.000,463.018 512.000,457.632 540.000,451.593 568.000,444.911 596.000,437.596 624.000,429.660 652.000,421.112 680.000,411.962 708.000,402.222 736.000,391.904 764.000,381.020 792.000,369.590 820.000,357.635 848.000,345.172 876.000,332.208 904.000,318.751 932.000,304.809" />
<polyline fill="none" stroke="#2ca02c" stroke-width="2.0" stroke-dasharray="5 4" points="92.000,482.000 120.000,482.000 148.000,482.000 176.000,482.000 204.000,482.000 232.000,482.000 260.000,482.000 288.000,481.884 316.000,481.200 344.000,479.864 372.000,477.856 400.000,475.165 428.000,471.792 456.000,467.741 484.000,463.018 512.000,457.632 540.000,451.593 568.000,444.911 596.000,437.596 624.000,429.660 652.000,421.112 680.000,411.962 708.000,402.222 736.000,391.904 764.000,381.020 792.000,369.590 820.000,357.635 848.000,345.172 876.000,332.208 904.000,318.751 932.000,304.809" />
<rect x="712" y="34" width="212" height="64" fill="#ffffff" stroke="#e5e7eb" />
<line x1="724" y1="56" x2="750" y2="56" stroke="#d62728" stroke-width="2.5" />
<text x="760" y="60" class="tick">ROOT</text>
<line x1="724" y1="74" x2="750" y2="74" stroke="#1f77b4" stroke-width="2.5" />
<text x="760" y="78" class="tick">pyhf</text>
<line x1="724" y1="92" x2="750" y2="92" stroke="#2ca02c" stroke-width="2.0" stroke-dasharray="5 4" />
<text x="760" y="96" class="tick">NextStat</text>
</svg>