<svg xmlns="http://www.w3.org/2000/svg" width="960" height="560" viewBox="0 0 960 560">
<style>text{font-family:ui-sans-serif,system-ui,-apple-system,Segoe UI,Roboto,Helvetica,Arial,sans-serif;}.title{font-size:18px;font-weight:600;fill:#111827;}.label{font-size:13px;fill:#111827;}.tick{font-size:12px;fill:#374151;}.grid{stroke:#e5e7eb;stroke-width:1;}.axis{stroke:#111827;stroke-width:1.2;}</style>
<rect x="0" y="0" width="960" height="560" fill="#ffffff" />
<text x="92" y="34" class="title">xmlimport (OverallSys): ROOT bias in q(mu)</text>
<line x1="92" y1="482.000" x2="932" y2="482.000" class="grid" />
<text x="80" y="486.000" text-anchor="end" class="tick">0</text>
<line x1="92" y1="330.666" x2="932" y2="330.666" class="grid" />
<text x="80" y="334.666" text-anchor="end" class="tick">0.02</text>
<line x1="92" y1="179.332" x2="932" y2="179.332" class="grid" />
<text x="80" y="183.332" text-anchor="end" class="tick">0.04</text>
<line x1="92" y1="27.998" x2="932" y2="27.998" class="grid" />
<text x="80" y="31.998" text-anchor="end" class="tick">0.06</text>
<line x1="92.000" y1="72" x2="92.000" y2="482" class="grid" />
<text x="92.000" y="504" text-anchor="middle" class="tick">0</text>
<line x1="232.000" y1="72" x2="232.000" y2="482" class="grid" />
<text x="232.000" y="504" text-anchor="middle" class="tick">0.5</text>
<line x1="372.000" y1="72" x2="372.000" y2="482" class="grid" />
<text x="372.000" y="504" text-anchor="middle" class="tick">1</text>
<line x1="512.000" y1="72" x2="512.000" y2="482" class="grid" />
<text x="512.000" y="504" text-anchor="middle" class="tick">1.5</text>
<line x1="652.000" y1="72" x2="652.000" y2="482" class="grid" />
<text x="652.000" y="504" text-anchor="middle" class="tick">2</text>
<line x1="792.000" y1="72" x2="792.000" y2="482" class="grid" />
<text x="792.000" y="504" text-anchor="middle" class="tick">2.5</text>
<line x1="932.000" y1="72" x2="932.000" y2="482" class="grid" />
<text x="932.000" y="504" text-anchor="middle" class="tick">3</text>
<line x1="92" y1="72" x2="92" y2="482" class="axis" />
<line x1="92" y1="482" x2="932" y2="482" class="axis" />
<text x="512.000" y="542" text-anchor="middle" class="label">mu</text>
<text x="22" y="277.000" text-anchor="middle" class="label" transform="rotate(-90 22 277.000)">Δq(mu)</text>
<polyline fill="none" stroke="#d62728" stroke-width="2.5" points="92.000,482.000 120.000,482.000 148.000,482.000 176.000,482.000 204.000,482.000 232.000,482.000 260.000,482.000 288.000,482.000 316.000,482.000 344.000,482.000 372.000,482.000 400.000,482.000 428.000,481.929 456.000,481.571 484.000,480.475 512.000,478.209 540.000,474.346 568.000,468.572 596.000,460.529 624.000,449.909 652.000,436.424 680.000,419.810 708.000,399.822 736.000,376.236 764.000,348.845 792.000,317.461 820.000,281.912 848.000,242.044 876.000,197.717 904.000,148.807 932.000,95.208" />
<polyline fill="none" stroke="#ff7f0e" stroke-width="2.5" points="92.000,482.000 120.000,482.000 148.000,482.000 176.000,482.000 204.000,482.000 232.000,482.000 260.000,482.000 288.000,482.000 316.000,482.000 344.000,482.000 372.000,482.000 400.000,482.000 428.000,481.929 456.000,481.568 484.000,480.466 512.000,478.191 540.000,474.347 568.000,468.572 596.000,460.529 624.000,449.909 652.000,436.424 680.000,419.810 708.000,399.822 736.000,376.236 764.000,348.845 792.000,317.461 820.000,281.912 848.000,242.044 876.000,197.717 904.000,148.807 932.000,95.208" />
<rect x="712" y="34" width="212" height="46" fill="#ffffff" stroke="#e5e7eb" />
<line x1="724" y1="56" x2="750" y2="56" stroke="#d62728" stroke-width="2.5" />
<text x="760" y="60" class="tick">ROOT - NextStat</text>
<line x1="724" y1="74" x2="750" y2="74" stroke="#ff7f0e" stroke-width="2.5" />
<text x="760" y="78" class="tick">ROOT - pyhf</text>
</svg>